# xmcd CD database file
#
# Track frame offsets:
#	151
#	12166
#	26401
#	39466
#	52753
#	67526
#	78633
#	94728
#	110406
#	121566
#	135608
#	145511
#	158218
#	170748
#	185966
#	199843
#	212871
#	224601
#
# Disc length: 4799 seconds
#
# Revision: 0
# Processed by: cddbd v1.5.1PL2 Copyright (c) Steve Scherf et al.
# Submitted via: CDex 1.51
#
DISCID=f612bd12
DTITLE=Raymond Berthiaume - Chansons inoubliables du cocktail lounge
DYEAR=1900
DGENRE=Québécois
TTITLE0=N'oublie jamais
TTITLE1=Mona Lisa
TTITLE2=The very thought of you
TTITLE3=parle plus bas
TTITLE4=dance ballerina dance
TTITLE5=Moonglow
TTITLE6=my kind of girl
TTITLE7=too young
TTITLE8=fly me to the moon
TTITLE9=inoubliable
TTITLE10=don't get around much anymore
TTITLE11=rien n'a changé
TTITLE12=nature boy
TTITLE13=pretend
TTITLE14=sweet Lorraine
TTITLE15=un monde avec toi
TTITLE16=it had to be you
TTITLE17=my funny valentine
EXTD=
EXTT0=
EXTT1=
EXTT2=
EXTT3=
EXTT4=
EXTT5=
EXTT6=
EXTT7=
EXTT8=
EXTT9=
EXTT10=
EXTT11=
EXTT12=
EXTT13=
EXTT14=
EXTT15=
EXTT16=
EXTT17=
PLAYORDER=
